<svg width="41" height="40" viewBox="0 0 41 40" fill="none" xmlns="http://www.w3.org/2000/svg">
<rect x="0.399963" width="40" height="40" rx="6.66667" fill="#FF45CB"/>
<mask id="mask0_319_7753" style="mask-type:alpha" maskUnits="userSpaceOnUse" x="10" y="10" width="21" height="20">
<rect x="10.4" y="10" width="20" height="20" fill="#D9D9D9"/>
</mask>
<g mask="url(#mask0_319_7753)">
<path d="M22.9 26.6667C21.0388 26.6667 19.4625 26.0209 18.1708 24.7292C16.8791 23.4375 16.2333 21.8612 16.2333 20C16.2333 18.1528 16.8791 16.5799 18.1708 15.2813C19.4625 13.9827 21.0388 13.3334 22.9 13.3334C24.7472 13.3334 26.3201 13.9827 27.6187 15.2813C28.9173 16.5799 29.5666 18.1528 29.5666 20C29.5666 21.8612 28.9173 23.4375 27.6187 24.7292C26.3201 26.0209 24.7472 26.6667 22.9 26.6667ZM22.9 25C24.2888 25 25.4694 24.5139 26.4416 23.5417C27.4138 22.5695 27.9 21.3889 27.9 20C27.9 18.6112 27.4138 17.4306 26.4416 16.4584C25.4694 15.4862 24.2888 15 22.9 15C21.5111 15 20.3305 15.4862 19.3583 16.4584C18.3861 17.4306 17.9 18.6112 17.9 20C17.9 21.3889 18.3861 22.5695 19.3583 23.5417C20.3305 24.5139 21.5111 25 22.9 25ZM24.7958 23.1042L25.9833 21.9167L23.7333 19.6667V16.6667H22.0666V20.3542L24.7958 23.1042ZM12.0666 17.5V15.8334H15.4V17.5H12.0666ZM11.2333 20.8334V19.1667H15.4V20.8334H11.2333ZM12.0666 24.1667V22.5H15.4V24.1667H12.0666Z" fill="white"/>
</g>
</svg>
