<svg width="32" height="32" viewBox="0 0 32 32" fill="none" xmlns="http://www.w3.org/2000/svg">
<rect width="32" height="32" rx="4" fill="#EFF6FF"/>
<path d="M17.0628 20.6724C17.1422 20.7518 17.1819 20.843 17.1819 20.9462C17.1819 21.0494 17.1422 21.1406 17.0628 21.22L16.4676 21.8153C16.3882 21.8946 16.2969 21.9343 16.1938 21.9343C16.0906 21.9343 15.9993 21.8946 15.92 21.8153L10.3723 16.2676C10.293 16.1883 10.2533 16.097 10.2533 15.9938C10.2533 15.8906 10.293 15.7994 10.3723 15.72L15.92 10.1724C15.9993 10.093 16.0906 10.0533 16.1938 10.0533C16.2969 10.0533 16.3882 10.093 16.4676 10.1724L17.0628 10.7676C17.1422 10.847 17.1819 10.9383 17.1819 11.0414C17.1819 11.1446 17.1422 11.2359 17.0628 11.3153L12.3842 15.9938L17.0628 20.6724ZM21.6342 20.6724C21.7136 20.7518 21.7533 20.843 21.7533 20.9462C21.7533 21.0494 21.7136 21.1406 21.6342 21.22L21.039 21.8153C20.9596 21.8946 20.8684 21.9343 20.7652 21.9343C20.662 21.9343 20.5708 21.8946 20.4914 21.8153L14.9438 16.2676C14.8644 16.1883 14.8247 16.097 14.8247 15.9938C14.8247 15.8906 14.8644 15.7994 14.9438 15.72L20.4914 10.1724C20.5708 10.093 20.662 10.0533 20.7652 10.0533C20.8684 10.0533 20.9596 10.093 21.039 10.1724L21.6342 10.7676C21.7136 10.847 21.7533 10.9383 21.7533 11.0414C21.7533 11.1446 21.7136 11.2359 21.6342 11.3153L16.9557 15.9938L21.6342 20.6724Z" fill="#3B82F6"/>
</svg>
