<svg width="40" height="40" viewBox="0 0 40 40" fill="none" xmlns="http://www.w3.org/2000/svg">
<rect width="40" height="40" rx="6.66667" fill="#3B82F6"/>
<mask id="mask0_319_7682" style="mask-type:alpha" maskUnits="userSpaceOnUse" x="10" y="10" width="20" height="20">
<rect x="10" y="10" width="20" height="20" fill="#D9D9D9"/>
</mask>
<g mask="url(#mask0_319_7682)">
<path d="M20.0002 28.75C18.3752 28.75 16.9006 28.3477 15.5762 27.5431C14.2521 26.7387 13.2134 25.6607 12.4602 24.3092V26.7948H11.2102V22.2115H15.7935V23.4615H13.4265C14.029 24.6752 14.9194 25.6517 16.0979 26.391C17.2764 27.1303 18.5771 27.5 20.0002 27.5C21.0205 27.5 21.9775 27.3115 22.8712 26.9344C23.7649 26.5572 24.5471 26.0424 25.2181 25.3902C25.8891 24.738 26.4278 23.9677 26.8344 23.0794C27.2409 22.191 27.4602 21.234 27.4923 20.2083H28.7421C28.7154 21.3921 28.4678 22.5022 27.9994 23.5385C27.5309 24.5748 26.9027 25.4802 26.1148 26.2548C25.3269 27.0294 24.4081 27.6389 23.3583 28.0833C22.3086 28.5278 21.1892 28.75 20.0002 28.75ZM19.4104 25.6731V24.6219C18.8004 24.4797 18.2932 24.2264 17.8887 23.8621C17.4844 23.4978 17.1744 23.0064 16.9585 22.3879L18.0129 21.9583C18.2117 22.5011 18.4962 22.9135 18.8665 23.1956C19.2366 23.4776 19.6562 23.6185 20.1252 23.6185C20.5995 23.6185 21.0253 23.5002 21.4025 23.2635C21.7796 23.027 21.9681 22.6475 21.9681 22.125C21.9681 21.6901 21.806 21.3438 21.4819 21.0858C21.1576 20.8278 20.5526 20.5363 19.6669 20.2115C18.8101 19.9038 18.192 19.5593 17.8127 19.1779C17.4334 18.7965 17.2437 18.2928 17.2437 17.6667C17.2437 17.1293 17.4377 16.6373 17.8256 16.1906C18.2134 15.7441 18.7556 15.4594 19.4521 15.3365V14.3269H20.59V15.3365C21.0579 15.3728 21.4887 15.5489 21.8825 15.8646C22.2761 16.1803 22.56 16.5598 22.7342 17.0031L21.7054 17.4167C21.5622 17.1079 21.3576 16.8512 21.0915 16.6467C20.8255 16.4421 20.4756 16.3398 20.0419 16.3398C19.5237 16.3398 19.1174 16.4626 18.8231 16.7083C18.5288 16.954 18.3817 17.2735 18.3817 17.6667C18.3817 18.0599 18.5253 18.366 18.8127 18.585C19.1001 18.804 19.6818 19.0631 20.5579 19.3623C21.5579 19.7234 22.2299 20.1283 22.574 20.5769C22.918 21.0256 23.09 21.5417 23.09 22.125C23.09 22.5225 23.0165 22.8713 22.8696 23.1715C22.7226 23.4717 22.5306 23.7242 22.2935 23.9287C22.0563 24.1333 21.7862 24.2949 21.4833 24.4135C21.1804 24.532 20.8687 24.6153 20.5483 24.6635V25.6731H19.4104ZM11.2583 19.7917C11.2957 18.5812 11.5512 17.4565 12.025 16.4175C12.4989 15.3785 13.1324 14.4744 13.9256 13.7052C14.719 12.9359 15.6365 12.3344 16.6781 11.9006C17.7198 11.4669 18.8271 11.25 20.0002 11.25C21.6092 11.25 23.0839 11.6536 24.4242 12.4608C25.7644 13.2679 26.8031 14.3553 27.5402 15.7229V13.2052H28.7902V17.7885H24.2069V16.5385H26.574C25.9874 15.3462 25.1036 14.375 23.9225 13.625C22.7414 12.875 21.434 12.5 20.0002 12.5C19.0013 12.5 18.0563 12.6859 17.1652 13.0577C16.2742 13.4295 15.4906 13.9388 14.8144 14.5856C14.1381 15.2326 13.5927 16.0002 13.1781 16.8885C12.7635 17.7769 12.5402 18.7446 12.5081 19.7917H11.2583Z" fill="white"/>
</g>
</svg>
