<svg width="41" height="40" viewBox="0 0 41 40" fill="none" xmlns="http://www.w3.org/2000/svg">
<rect x="0.799988" width="40" height="40" rx="6.66667" fill="#FB923C"/>
<mask id="mask0_319_7770" style="mask-type:alpha" maskUnits="userSpaceOnUse" x="10" y="10" width="21" height="20">
<rect x="10.8" y="10" width="20" height="20" fill="#D9D9D9"/>
</mask>
<g mask="url(#mask0_319_7770)">
<path d="M15.2231 27.0833C14.8076 27.0833 14.4526 26.9362 14.1581 26.6419C13.8638 26.3474 13.7167 25.9924 13.7167 25.5769V14.4231C13.7167 14.0076 13.8638 13.6526 14.1581 13.3581C14.4526 13.0638 14.8076 12.9167 15.2231 12.9167H18.9315C18.9838 12.454 19.1858 12.0606 19.5373 11.7365C19.8887 11.4122 20.3096 11.25 20.8 11.25C21.2957 11.25 21.7193 11.4122 22.0708 11.7365C22.4224 12.0606 22.6216 12.454 22.6686 12.9167H26.3769C26.7924 12.9167 27.1474 13.0638 27.4419 13.3581C27.7362 13.6526 27.8833 14.0076 27.8833 14.4231V25.5769C27.8833 25.9924 27.7362 26.3474 27.4419 26.6419C27.1474 26.9362 26.7924 27.0833 26.3769 27.0833H15.2231ZM15.2231 25.8333H26.3769C26.4411 25.8333 26.4998 25.8066 26.5531 25.7531C26.6066 25.6998 26.6333 25.641 26.6333 25.5769V14.4231C26.6333 14.359 26.6066 14.3002 26.5531 14.2469C26.4998 14.1934 26.4411 14.1667 26.3769 14.1667H15.2231C15.159 14.1667 15.1002 14.1934 15.0469 14.2469C14.9934 14.3002 14.9667 14.359 14.9667 14.4231V25.5769C14.9667 25.641 14.9934 25.6998 15.0469 25.7531C15.1002 25.8066 15.159 25.8333 15.2231 25.8333ZM16.8417 23.8621H22.2583V22.6123H16.8417V23.8621ZM16.8417 20.625H24.7583V19.375H16.8417V20.625ZM16.8417 17.3877H24.7583V16.1379H16.8417V17.3877ZM20.8 13.6219C20.9806 13.6219 21.1299 13.5628 21.2479 13.4448C21.366 13.3267 21.425 13.1774 21.425 12.9969C21.425 12.8163 21.366 12.667 21.2479 12.549C21.1299 12.4309 20.9806 12.3719 20.8 12.3719C20.6195 12.3719 20.4701 12.4309 20.3521 12.549C20.234 12.667 20.175 12.8163 20.175 12.9969C20.175 13.1774 20.234 13.3267 20.3521 13.4448C20.4701 13.5628 20.6195 13.6219 20.8 13.6219Z" fill="white"/>
</g>
</svg>
