<svg width="41" height="40" viewBox="0 0 41 40" fill="none" xmlns="http://www.w3.org/2000/svg">
<rect x="0.599976" width="40" height="40" rx="6.66667" fill="#FACC15"/>
<mask id="mask0_319_7735" style="mask-type:alpha" maskUnits="userSpaceOnUse" x="10" y="10" width="21" height="20">
<rect x="10.6" y="10" width="20" height="20" fill="#D9D9D9"/>
</mask>
<g mask="url(#mask0_319_7735)">
<path d="M16.5614 27.9648C16.1566 27.9648 15.8123 27.8229 15.5287 27.5392C15.2451 27.2556 15.1033 26.9113 15.1033 26.5065C15.1033 26.1015 15.2451 25.7572 15.5287 25.4735C15.8123 25.1899 16.1566 25.0481 16.5614 25.0481C16.9664 25.0481 17.3107 25.1899 17.5944 25.4735C17.878 25.7572 18.0198 26.1015 18.0198 26.5065C18.0198 26.9113 17.878 27.2556 17.5944 27.5392C17.3107 27.8229 16.9664 27.9648 16.5614 27.9648ZM24.6385 27.9648C24.2335 27.9648 23.8892 27.8229 23.6056 27.5392C23.322 27.2556 23.1802 26.9113 23.1802 26.5065C23.1802 26.1015 23.322 25.7572 23.6056 25.4735C23.8892 25.1899 24.2335 25.0481 24.6385 25.0481C25.0434 25.0481 25.3876 25.1899 25.6712 25.4735C25.9548 25.7572 26.0966 26.1015 26.0966 26.5065C26.0966 26.9113 25.9548 27.2556 25.6712 27.5392C25.3876 27.8229 25.0434 27.9648 24.6385 27.9648ZM15.6127 14.7917L17.725 19.2148H23.406C23.4541 19.2148 23.4969 19.2028 23.5344 19.1788C23.5717 19.1547 23.6037 19.1213 23.6304 19.0785L25.866 15.016C25.8981 14.9573 25.9007 14.9052 25.8739 14.8598C25.8473 14.8144 25.8019 14.7917 25.7377 14.7917H15.6127ZM15.0135 13.5417H26.5839C26.9248 13.5417 27.1825 13.6867 27.3571 13.9769C27.5318 14.2669 27.5401 14.5631 27.3821 14.8654L24.7121 19.7019C24.5754 19.9423 24.3946 20.1295 24.1698 20.2635C23.9448 20.3977 23.6982 20.4648 23.4302 20.4648H17.35L16.3852 22.2275C16.3424 22.2917 16.3411 22.3611 16.3812 22.4358C16.4212 22.5107 16.4813 22.5481 16.5614 22.5481H26.0966V23.7981H16.5614C16.0059 23.7981 15.5884 23.5585 15.3091 23.0794C15.0297 22.6002 15.0198 22.1218 15.2796 21.6442L16.4685 19.5065L13.4366 13.125H11.85V11.875H14.2219L15.0135 13.5417Z" fill="white"/>
</g>
</svg>
