<svg width="22" height="22" viewBox="0 0 22 22" fill="none" xmlns="http://www.w3.org/2000/svg">
<path d="M11 15.7307C11.2289 15.7307 11.4207 15.6533 11.5755 15.4985C11.7304 15.3436 11.8078 15.1518 11.8078 14.923C11.8078 14.6941 11.7304 14.5023 11.5755 14.3475C11.4207 14.1928 11.2289 14.1155 11 14.1155C10.7712 14.1155 10.5794 14.1928 10.4245 14.3475C10.2697 14.5023 10.1923 14.6941 10.1923 14.923C10.1923 15.1518 10.2697 15.3436 10.4245 15.4985C10.5794 15.6533 10.7712 15.7307 11 15.7307ZM10.25 12.077H11.75V6.07696H10.25V12.077ZM11 21.6077L7.85952 18.5H3.50002V14.1405L0.392273 11L3.50002 7.85946V3.49996H7.85952L11 0.392212L14.1405 3.49996H18.5V7.85946L21.6078 11L18.5 14.1405V18.5H14.1405L11 21.6077ZM11 19.5L13.5 17H17V13.5L19.5 11L17 8.49996V4.99996H13.5L11 2.49996L8.50002 4.99996H5.00002V8.49996L2.50002 11L5.00002 13.5V17H8.50002L11 19.5Z" fill="#F97316"/>
</svg>
